<svg width="32" height="60" viewBox="0 0 32 60" fill="none" xmlns="http://www.w3.org/2000/svg">
<path d="M23.4782 17.1814V11.7391C23.4782 11.0188 22.8942 10.4348 22.1739 10.4348H21.1956V1.3043C21.1956 0.583945 20.6116 0 19.8913 0H11.413C10.6927 0 10.1087 0.583945 10.1087 1.3043V10.4347H9.13043C8.41008 10.4347 7.82613 11.0187 7.82613 11.739V17.1813C3.24562 19.0078 0 23.4879 0 28.712V58.6956C0 59.4159 0.583945 59.9999 1.3043 59.9999H30C30.7204 59.9999 31.3043 59.4159 31.3043 58.6956V28.7121C31.3042 23.4879 28.0586 19.0078 23.4782 17.1814ZM12.7173 2.60871H18.5869V10.4348H12.7173V2.60871ZM10.4346 13.0434H20.8693V16.3043H10.4346V13.0434ZM28.6955 57.3913H2.60859V28.7121C2.60859 23.3088 7.00441 18.913 12.4076 18.913H18.8965C24.2998 18.913 28.6955 23.3088 28.6955 28.7121V57.3913Z" fill="#F1CDB3"/>
<path d="M24.1304 27.3913H7.17381C6.45346 27.3913 5.86951 27.9752 5.86951 28.6956V52.826C5.86951 53.5464 6.45346 54.1303 7.17381 54.1303H24.1304C24.8507 54.1303 25.4347 53.5464 25.4347 52.826V44.6287C25.4347 43.9084 24.8507 43.3244 24.1304 43.3244C23.41 43.3244 22.8261 43.9084 22.8261 44.6287V51.5217H8.47823V30H22.8261V34.1287C22.8261 34.8491 23.41 35.433 24.1304 35.433C24.8507 35.433 25.4347 34.8491 25.4347 34.1287V28.6957C25.4347 27.9752 24.8507 27.3913 24.1304 27.3913Z" fill="#F1CDB3"/>
<path d="M24.1303 38.0645C23.41 38.0645 22.826 38.6484 22.826 39.3688V39.4992C22.826 40.2195 23.41 40.8035 24.1303 40.8035C24.8507 40.8035 25.4346 40.2195 25.4346 39.4992V39.3688C25.4346 38.6484 24.8507 38.0645 24.1303 38.0645Z" fill="#F1CDB3"/>
<path d="M14.3401 41.1512C12.1824 41.1512 10.4271 42.9066 10.4271 45.0642C10.4271 47.2219 12.1824 48.9773 14.3401 48.9773C16.4978 48.9773 18.2531 47.2219 18.2531 45.0642C18.2531 42.9067 16.4978 41.1512 14.3401 41.1512ZM14.3401 46.3687C13.6209 46.3687 13.0358 45.7835 13.0358 45.0644C13.0358 44.3452 13.6209 43.7601 14.3401 43.7601C15.0593 43.7601 15.6444 44.3452 15.6444 45.0644C15.6444 45.7835 15.0594 46.3687 14.3401 46.3687Z" fill="#F1CDB3"/>
<path d="M21.1935 35.9842C21.1935 33.8266 19.4382 32.0712 17.2805 32.0712C15.1228 32.0712 13.3675 33.8266 13.3675 35.9842C13.3675 38.1419 15.1228 39.8973 17.2805 39.8973C19.438 39.8974 21.1935 38.1419 21.1935 35.9842ZM17.2804 37.2887C16.5612 37.2887 15.9761 36.7035 15.9761 35.9844C15.9761 35.2652 16.5612 34.6801 17.2804 34.6801C17.9996 34.6801 18.5847 35.2652 18.5847 35.9844C18.5847 36.7035 17.9998 37.2887 17.2804 37.2887Z" fill="#F1CDB3"/>
</svg>
